<?xml version="1.0" encoding="UTF-8"?>
<svg version="1.1" viewBox="0 0 1600 1288" width="1280" height="1280" xmlns="http://www.w3.org/2000/svg">
<path transform="translate(786 17.6)" d="m0 0c0.928-0.00758 1.86-0.0152 2.81-0.023 14.1-0.0932 27.7 0.28 40.4 7.15 0.672 0.351 1.34 0.701 2.04 1.06 5.36 2.87 10.1 6.16 14.6 10.2 0.819 0.688 1.64 1.38 2.48 2.09 8.13 7.01 15.6 15.3 20.5 24.9v2c0.99 0.33 1.98 0.66 3 1 1.06 1.62 1.06 1.62 2.02 3.73 0.361 0.777 0.721 1.55 1.09 2.35 0.377 0.839 0.754 1.68 1.14 2.54 0.396 0.859 0.791 1.72 1.2 2.6 0.808 1.76 1.61 3.51 2.41 5.27 1.3 2.86 2.63 5.7 3.97 8.54 0.851 1.81 1.69 3.63 2.54 5.45 1.11 2.38 2.23 4.75 3.37 7.12 0.814 1.71 0.814 1.71 1.64 3.46 0.482 1 0.964 2 1.46 3.04 1.2 2.98 1.76 5.72 2.16 8.9h2c0.99 3.3 1.98 6.6 3 10h2c0.351 1.03 0.701 2.06 1.06 3.12 1.74 4.66 3.99 9.03 6.25 13.5 2.4 4.74 4.45 9.55 6.43 14.5 1.78 4.17 3.89 8.16 6.03 12.2 1.31 2.95 1.84 5.6 2.23 8.79h2c0.208 0.559 0.415 1.12 0.629 1.7 3.33 8.67 7.5 16.9 11.9 25.1 2.83 5.38 4.44 10.2 5.51 16.2h2c2.89 5.54 2.89 5.54 3.41 7.79 0.846 3.16 2.26 5.95 3.66 8.9 0.309 0.654 0.617 1.31 0.936 1.98 0.66 1.4 1.32 2.79 1.98 4.19 1.68 3.54 3.35 7.1 5.02 10.6 0.68 1.44 1.36 2.89 2.04 4.33 0.654 1.39 1.31 2.78 1.96 4.17 0.433 0.919 0.433 0.919 0.874 1.86 0.835 1.78 1.67 3.55 2.5 5.33 0.275 0.586 0.55 1.17 0.833 1.77 1.81 3.88 3.57 7.78 5.31 11.7 0.441 0.987 0.882 1.97 1.34 2.99 0.87 1.95 1.73 3.9 2.59 5.86 2.11 4.71 4.22 8.52 7.55 12.5 0.605 1.96 0.605 1.96 1 4 1.57 4.04 3.29 8.02 5 12 0.367 0.861 0.735 1.72 1.11 2.61 1.35 3.11 2.68 6.06 4.45 8.95 1.5 2.54 2.43 5.11 3.43 7.88 3.38 8.59 7.64 16.9 11.8 25.1 2.18 4.42 4.19 8.93 6.2 13.4h2c0.227 1.11 0.454 2.23 0.688 3.38 1.3 5.28 3.78 9.85 6.31 14.6 1.27 2.44 2.25 4.7 3.19 7.31 2 5.45 4.55 10.7 7.04 15.9 1.97 4.17 3.86 8.39 5.73 12.6 1.08 2.38 1.08 2.38 3.04 5.17 0.33 0.99 0.66 1.98 1 3 1.8 2.6 2.87 2.97 6.01 3.58 4.55 0.573 9.08 0.55 13.7 0.528 1.44-8.35e-4 1.44-8.35e-4 2.9-0.00169 3.2-0.00303 6.39-0.0132 9.59-0.0233 2.3-0.00356 4.59-0.00664 6.89-0.00929 4.95-0.00655 9.89-0.0161 14.8-0.0279 7.85-0.0183 15.7-0.0279 23.6-0.0359 11-0.0118 22.1-0.0259 33.1-0.0431 1.05-0.00164 1.05-0.00164 2.12-0.0033 9.88-0.0155 19.8-0.0341 29.7-0.054 0.693-0.00139 1.39-0.00279 2.1-0.00422 0.692-0.00139 1.38-0.00279 2.1-0.00422 11.6-0.0232 23.3-0.0384 34.9-0.0473 6.51-0.00542 13-0.0147 19.5-0.0334 72.6-0.204 135 5.45 190 58.9 2.59 2.65 4.9 5.48 7.28 8.33 0.928 0.908 1.86 1.82 2.81 2.75 2.19 2.25 2.19 2.25 2.19 4.25 1.98 2.12 4.08 4.07 6.19 6.06 1.81 1.94 1.81 1.94 2.81 4.94 1.15 2.52 2.02 4.02 4 6 1.95 2.92 3.47 5.79 4.88 9 1.07 2.15 1.07 2.15 3.19 3.88 2.43 2.67 2.41 4.62 2.94 8.12 0.495 0.495 0.99 0.99 1.5 1.5 1.5 1.5 1.5 1.5 1.94 4.38 0.667 3.7 2.23 5.25 4.56 8.12-0.33 0.99-0.66 1.98-1 3 0.65 2.15 0.65 2.15 1.74 4.46 2.38 5.63 3.95 11.3 5.45 17.2 0.26 0.993 0.519 1.99 0.787 3.01 1.31 5.1 2.33 10.1 3.03 15.3 0.33 0.66 0.66 1.32 1 2 0.241 2.53 0.426 5.03 0.562 7.56 0.0425 0.746 0.0849 1.49 0.129 2.26 0.419 8.06 0.4 16.1 0.309 24.2-2.78 0.784-5.24 1.12-8.12 1.12-0.82 0.00235-1.64 0.00471-2.48 0.00713-0.898-0.00251-1.8-0.00502-2.72-0.0076-0.961 0.00128-1.92 0.00256-2.91 0.00387-3.25 0.00309-6.51-0.00101-9.76-0.00502-2.35 7.39e-4 -4.71 0.00192-7.06 0.0035-5.15 0.00244-10.3 0.00174-15.4-0.00166-7.71-0.00507-15.4-0.00437-23.1-0.00253-13.1 0.00297-26.3 0.00119-39.4-0.00314-13.3-0.00437-26.6-0.00657-39.9-0.0061-0.84 2.87e-5 -1.68 5.74e-5 -2.55 8.69e-5 -4.28 1.56e-4 -8.57 3.48e-4 -12.8 5.53e-4 -31 0.00141-62.1-0.00203-93.1-0.00802-30.7-0.00592-61.5-0.00977-92.2-0.0109-0.954-3.44e-5 -1.91-6.88e-5 -2.89-1.04e-4 -8.71-3.13e-4 -17.4-6.01e-4 -26.1-8.58e-4 -21.7-6.39e-4 -43.3-0.0016-65-0.00278-0.986-5.33e-5 -1.97-1.07e-4 -2.99-1.62e-4 -48-0.00262-96-0.00893-144-0.0155-16.7-0.00229-33.3-0.00457-50-0.00677-1.03-1.37e-4 -2.07-2.74e-4 -3.13-4.15e-4 -48-0.00634-96-0.0101-144-0.0131-3.12-1.98e-4 -6.23-3.97e-4 -9.35-5.97e-4 -20.7-0.00132-41.3-0.00259-62-0.00384-41.1-0.00248-82.2-0.00522-123-0.00814-1.96-1.39e-4 -3.91-2.78e-4 -5.87-4.17e-4 -88.1-0.00625-176-0.0156-264-0.0263-0.825-9.99e-5 -1.65-2e-4 -2.5-3.03e-4 -41.3-5e-3 -82.6-0.0102-124-0.0156-0.332-2.05-0.659-4.09-0.984-6.14-0.183-1.14-0.365-2.28-0.554-3.46-0.679-5.01-0.735-9.94-0.709-15-0.00241-1.09-0.00483-2.18-0.00732-3.3-0.00558-3.61 0.00299-7.21 0.0116-10.8-0.00107-2.6-0.00301-5.2-0.00575-7.8-0.00501-6.31 5.64e-4 -12.6 0.00985-18.9 0.0104-7.35 0.0103-14.7 0.00983-22.1-4.99e-4 -13.1 0.00863-26.2 0.0232-39.3 0.0141-12.7 0.0212-25.4 0.0205-38.1-5.99e-5 -1.18-5.99e-5 -1.18-1.21e-4 -2.38-4.04e-5 -0.783-8.07e-5 -1.57-1.22e-4 -2.37-6.9e-4 -14.5 0.0052-29 0.0142-43.5 0.00301-5.12 0.00408-10.2 0.00453-15.4 7.54e-4 -6.89 0.00711-13.8 0.0172-20.7 0.00292-2.53 0.00415-5.06 0.00357-7.59-4.91e-4 -3.45 0.00517-6.9 0.0124-10.3-0.00155-1-0.0031-2-0.00469-3.04 0.0475-13.7 0.0475-13.7 2.14-15.8 1.46-0.1 2.92-0.131 4.39-0.134 0.947-0.00426 1.89-0.00853 2.87-0.0129 1.05 4.53e-4 2.1 9.06e-4 3.18 0.00137 1.1-0.00336 2.2-0.00672 3.33-0.0102 3.66-0.00955 7.31-0.0115 11-0.0125 2.54-0.00321 5.08-0.00658 7.62-0.0101 5.35-6e-3 10.7-0.00788 16-0.00725 6.14 5.97e-4 12.3-0.00987 18.4-0.0257 5.93-0.0148 11.9-0.0182 17.8-0.0176 2.51-0.00117 5.02-0.00556 7.53-0.0133 24.9-0.0698 53.1 0.572 72.9 18.2v2l1.77 0.32c2.54 0.775 3.87 1.8 5.85 3.55l1.79 1.55c1.59 1.57 1.59 1.57 3.59 4.57l1.38 1.38c1.62 1.62 1.62 1.62 3.69 4.25 1.72 2.44 1.72 2.44 3.94 3.38 0.144 0.639 0.289 1.28 0.438 1.94 0.424 2.44 0.424 2.44 3.56 4.06 0.33 1.01 0.66 2.02 1 3.06 0.33 0.969 0.66 1.94 1 2.94 0.99 0.33 1.98 0.66 3 1v3c1.16 1.16 2.33 2.29 3.56 3.38 1.44 1.62 1.44 1.62 1.94 3.69 0.373 2.33 0.373 2.33 3.5 3.94 0.148 0.742 0.296 1.48 0.449 2.25 0.712 3.56 2.31 5.77 4.36 8.75 1.03 1.52 1.03 1.52 2.08 3.06 1.38 1.93 2.81 3.82 4.3 5.68 1.63 2.04 2.68 3.92 3.81 6.26 0.66 0.66 1.32 1.32 2 2 0.33 0.99 0.66 1.98 1 3 0.66 0.66 1.32 1.32 2 2 0.667 1.33 1.33 2.67 2 4 0.66 0.66 1.32 1.32 2 2 0.667 1.33 1.33 2.67 2 4 0.495 0.66 0.99 1.32 1.5 2 1.45 1.93 2.42 3.85 3.5 6 0.66 0.66 1.32 1.32 2 2 1.07 2.05 2.03 4.13 3 6.22 0.879 1.95 0.879 1.95 3 2.78 13.7 0.116 27.6-2.93 41.1-5 2.67-0.407 5.34-0.812 8.01-1.22 4.84-0.735 9.69-1.47 14.5-2.21 12.2-1.86 24.4-3.69 36.6-5.52 6.25-0.935 12.5-1.87 18.7-2.81 1.86-0.279 1.86-0.279 3.76-0.563 7.42-1.11 14.8-2.23 22.3-3.34 28.7-4.31 57.3-8.58 86-12.8 24-3.52 48-7.12 72-10.8 16.7-2.57 33.5-5.13 50.2-7.56 1.26-0.186 1.26-0.186 2.55-0.376 3.43-0.491 6.66-0.812 10.1-0.812-5.15-15.6-10.4-31.1-16.6-46.4-1.88-4.74-3.59-9.53-5.29-14.3-1.07-3.04-2.17-6.07-3.28-9.1-1.15-3.15-2.26-6.31-3.31-9.5-3.4-10.3-7.11-20.6-11.1-30.7-3.27-8.22-6.3-16.5-9.05-24.9-2.13-6.51-4.39-12.9-7.12-19.2-1.58-3.75-3.02-7.54-4.45-11.3-0.375-1-0.375-1-0.758-2.02-1.05-2.83-2.07-5.66-3.03-8.53-1.34-4.02-2.81-7.98-4.28-12-0.306-0.831-0.613-1.66-0.929-2.52-1.49-4.02-2.98-8.04-4.51-12.1-2.42-6.37-4.73-12.7-6.61-19.3-1.01-3.26-2.31-6.37-3.61-9.52-2.69-6.75-5.01-13.7-7.42-20.5-0.429-1.21-0.859-2.43-1.3-3.68-0.384-1.09-0.768-2.18-1.16-3.31-1.29-3.47-2.75-6.85-4.21-10.3-3.23-8.27-6.23-16.6-9.12-25-3.1-8.95-6.41-17.8-9.75-26.7-4.81-12.7-9.48-25.5-14.1-38.4-2.11-5.88-4.26-11.7-6.41-17.6-1.98-5.42-3.86-10.9-5.65-16.3 2.98-2.53 5.19-3.48 9.04-4.07 0.974-0.156 1.95-0.313 2.95-0.474 0.992-0.149 1.98-0.298 3.01-0.452 1.83-0.298 3.66-0.596 5.49-0.895 1.94-0.307 3.88-0.613 5.82-0.918 9.55-1.51 19.1-3.08 28.6-4.69 9.66-1.62 19.3-3.17 29-4.62 7.9-1.19 15.7-2.53 23.5-4.16 7.14-1.44 14.3-2.56 21.5-3.71 1.56-0.25 1.56-0.25 3.14-0.505 5.48-0.879 11-1.76 16.4-2.63 6.68-1.05 6.68-1.05 13.3-2.22 14.4-2.6 28.6-2.97 43.1-3.02zm705 599 1 2z" fill="#F9FCFE"/>
<path transform="translate(691,932)" d="m0 0h317c-1.51 6.04-4.11 11.6-6.56 17.3-0.273 0.638-0.546 1.28-0.827 1.93-3.47 8.09-7.13 15.9-11.4 23.6-3.15 5.8-5.86 11.8-8.62 17.8-0.282 0.611-0.565 1.22-0.856 1.85-3.88 8.4-7.69 16.8-11.5 25.3-3.89 8.69-8.02 17.3-12.1 25.8-3.62 7.58-7.14 15.2-10.7 22.8-5.78 12.6-11.6 25.1-17.5 37.6-4.97 10.5-9.89 21.1-14.7 31.7-4.36 9.55-8.85 19-13.3 28.5-4.2 8.9-8.35 17.8-12.4 26.8-3.94 8.75-8.1 17.4-12.5 25.9-0.437 0.868-0.874 1.74-1.32 2.63-3.17 6.05-7.32 11.1-11.7 16.4-0.665 0.853-1.33 1.71-2.02 2.59-15.4 18.8-39.1 29.3-62.8 32-19.6 1.83-39.2-1.96-58.5-5.14-3.95-0.649-7.89-1.29-11.8-1.93-11.6-1.89-23.3-3.8-34.9-5.72-11.9-1.96-23.8-3.91-35.7-5.86-3.44-0.562-6.87-1.12-10.3-1.69-21-3.43-41.9-6.85-62.9-10.3-1.1-3.98-0.89-6.21 0.625-10 0.373-0.964 0.747-1.93 1.13-2.92 0.41-1.03 0.821-2.05 1.24-3.11 0.844-2.18 1.69-4.35 2.53-6.53 0.632-1.63 0.632-1.63 1.28-3.29 1.67-4.37 3.23-8.77 4.76-13.2 0.279-0.804 0.558-1.61 0.846-2.44 0.866-2.5 1.73-5 2.59-7.5 4.38-12.7 8.81-25.3 13.4-37.9 3.01-8.35 5.97-16.7 8.92-25.1 4.45-12.6 8.96-25.3 13.6-37.8 6.93-19 13.8-38 20.3-57.2 3.94-11.5 8.07-22.9 12.2-34.3 2.74-7.56 5.47-15.1 8.11-22.7 5.38-15.4 11-30.7 16.5-46z" fill="#F9FCFE"/>
<path transform="translate(744,754)" d="m0 0c-0.464 0.804-0.464 0.804-0.938 1.62-1.19 2.37-1.19 2.37-1.49 5.13-0.609 3.43-1.62 6.37-2.87 9.62-0.462 1.21-0.925 2.41-1.4 3.66-0.498 1.28-0.995 2.57-1.49 3.85-0.508 1.32-1.02 2.64-1.52 3.96-0.751 1.96-1.5 3.91-2.26 5.87-1.55 4.02-3.06 8.04-4.55 12.1-2.4 6.52-4.99 12.9-7.68 19.3-0.333 0.795-0.667 1.59-1.01 2.41-5.15 12.1-5.15 12.1-8.18 13.7-2.62-0.188-2.62-0.188-5.25-2.12-3.33-4.29-5.38-8.58-5.38-14.1-0.66-0.33-1.32-0.66-2-1-2.54-5.68-3.78-11.9-5-18h-2c-0.495-4.46-0.495-4.46-1-9h-3c-0.135 1.69-0.135 1.69-0.273 3.41-0.637 5.05-2.39 9.42-4.35 14.1-0.534 1.29-0.534 1.29-1.08 2.61-0.733 1.77-1.47 3.53-2.21 5.3-1.03 2.46-2.03 4.93-3.03 7.41-0.6 1.45-1.2 2.91-1.8 4.36-0.269 0.677-0.538 1.35-0.815 2.05-1.94 4.55-1.94 4.55-4.64 5.69-0.593 0.0245-1.19 0.049-1.8 0.0742-3.41-3.83-5.35-7.75-7.12-12.5-0.251-0.651-0.503-1.3-0.762-1.97-0.71-1.84-1.41-3.68-2.11-5.53-0.973-2.49-1.91-4.84-3.19-7.19-0.268-0.598-0.536-1.2-0.812-1.81 0.33-0.66 0.66-1.32 1-2-0.66-0.33-1.32-0.66-2-1-0.781-1.89-0.781-1.89-1.5-4.25-0.768-2.44-1.53-4.82-2.5-7.19-0.937-2.4-1.66-4.78-2.38-7.25-1.76-5.96-3.84-11.9-6.71-17.4-1.23-2.57-1.54-5.11-1.92-7.91h-2c-0.66-1.65-1.32-3.3-2-5h15c0.33 1.32 0.66 2.64 1 4 0.613 2.09 1.24 4.17 1.88 6.25 0.327 1.08 0.655 2.16 0.992 3.27 1.03 3.17 2.17 6.27 3.36 9.39 1.34 3.62 2.52 7.3 3.71 11 3.52 10.9 3.52 10.9 8.17 21.3 0.891 1.87 0.891 1.87 0.891 3.87h2c0.238-0.965 0.238-0.965 0.48-1.95 2.28-8.85 5.26-17.5 9.27-25.7 1.84-4.96 3.53-11.5 1.32-16.5-0.354-0.624-0.709-1.25-1.07-1.89-0.495-1.76-0.495-1.76-1-3.56-0.837-3.52-0.837-3.52-3-6.44v-3h13c0.716 3.03 1.43 6.05 2.15 9.08 0.739 3.07 0.739 3.07 2.85 5.92 0.694 2 1.33 4.03 1.94 6.06 0.348 1.16 0.696 2.32 1.05 3.51 0.613 2.08 1.22 4.17 1.83 6.26 1.09 3.74 2.2 7.36 3.8 10.9 1.33 3.14 1.96 5.88 2.38 9.25h2v6h2v2h2c0.252-0.983 0.252-0.983 0.509-1.99 1.88-7.13 4.15-14 6.68-21 0.39-1.08 0.78-2.15 1.18-3.26 2.59-7.1 5.28-14.2 8.07-21.2 0.33-0.831 0.659-1.66 0.999-2.52 0.463-1.15 0.463-1.15 0.935-2.32 0.267-0.663 0.535-1.33 0.81-2.01 0.819-1.78 0.819-1.78 2.82-4.78 3.77-0.658 7.19-1 11-1z" fill="#CAEBF0"/>
<path transform="translate(1232,754)" d="m0 0c7.03 1.17 10.4 4.79 15 10 0.576 0.645 1.15 1.29 1.75 1.95 1.15 1.3 2.29 2.61 3.42 3.93 4.83 5.58 9.82 11 14.8 16.4 4.4 4.76 8.68 9.59 12.8 14.6 0.499 0.592 0.999 1.18 1.51 1.79 1.21 1.44 2.42 2.88 3.64 4.32-0.00222-0.592-0.00444-1.18-0.00673-1.8-0.0221-6.16-0.0372-12.3-0.0482-18.5-0.00503-2.3-0.0119-4.6-0.0205-6.9-0.0121-3.31-0.0178-6.61-0.0222-9.92-0.00516-1.03-0.0103-2.06-0.0156-3.12-7.55e-5 -0.961-1.51e-4 -1.92-2.29e-4 -2.91-0.00222-0.844-0.00444-1.69-0.00673-2.56 0.12-2.3 0.12-2.3 1.12-6.3h11v79c-3.71-0.652-5.66-1.16-8.3-3.88-0.579-0.587-1.16-1.17-1.76-1.78-0.599-0.628-1.2-1.26-1.81-1.9-0.627-0.643-1.25-1.29-1.9-1.95-3.54-3.66-6.99-7.37-10.3-11.3-2.79-3.2-5.72-6.27-8.64-9.36-4.81-5.12-9.53-10.3-14.1-15.6-0.764-0.876-0.764-0.876-1.54-1.77-2.13-2.49-3.6-4.34-4.64-7.48h-2c0.00222 0.662 0.00444 1.32 0.00673 2.01 0.0221 6.86 0.0372 13.7 0.0482 20.6 0.00504 2.56 0.0119 5.13 0.0205 7.69 0.0121 3.68 0.0178 7.35 0.0222 11 0.00516 1.15 0.0103 2.31 0.0156 3.5 7.55e-5 1.06 1.51e-4 2.12 2.29e-4 3.22 0.00222 0.939 0.00444 1.88 0.00673 2.85-0.12 2.13-0.12 2.13-1.12 3.13-1.52 0.0718-3.04 0.0839-4.56 0.0625-1.24-0.0135-1.24-0.0135-2.5-0.0273-0.957-0.0174-0.957-0.0174-1.93-0.0352-1.12-3.37-1.17-6.01-1.24-9.56-0.0131-0.662-0.0262-1.32-0.0397-2.01-0.0418-2.19-0.0763-4.38-0.11-6.57-0.0257-1.53-0.0515-3.05-0.0773-4.58-0.053-3.2-0.102-6.4-0.148-9.6-0.0602-4.09-0.134-8.18-0.212-12.3-0.0578-3.15-0.106-6.31-0.152-9.46-0.0233-1.51-0.05-3.01-0.0803-4.52-0.0415-2.12-0.0695-4.23-0.0943-6.35-0.0192-1.2-0.0384-2.4-0.0582-3.64 0.232-3.81 1.04-6.82 2.21-10.4zm-1 11 1 2zm55 38 1 3z" fill="#CDEEF3"/>
<path transform="translate(459,754)" d="m0 0c5.62 0 8.48 2.74 12.5 6.31 1.54 1.69 1.54 1.69 1.54 3.69h2c1.3 1.29 1.3 1.29 2.88 3.19 3.28 3.86 6.67 7.6 10.1 11.3 6.58 7.1 12.9 14.4 19.2 21.8 0.557 0.649 1.11 1.3 1.69 1.97 1.36 1.59 2.73 3.19 4.09 4.78-0.00222-0.592-0.00444-1.18-0.00673-1.8-0.0221-6.16-0.0372-12.3-0.0482-18.5-0.00503-2.3-0.0119-4.6-0.0205-6.9-0.0121-3.31-0.0178-6.61-0.0222-9.92-0.00516-1.03-0.0103-2.06-0.0156-3.12-7.55e-5 -0.961-1.51e-4 -1.92-2.29e-4 -2.91-0.00222-0.844-0.00444-1.69-0.00673-2.56 0.12-2.3 0.12-2.3 1.12-6.3h11v79c-5.53-1.11-6.36-2-10-6-1.2-1.19-1.2-1.19-2.43-2.39-4.39-4.34-8.64-8.71-12.6-13.4-2.93-3.37-5.98-6.64-9.02-9.91-2.77-3-5.36-6.1-7.91-9.3-0.763-0.763-1.53-1.53-2.31-2.31-2.24-2.24-4.39-4.51-6.5-6.88-0.907-1.01-0.907-1.01-1.83-2.04-1.36-1.77-1.36-1.77-1.36-3.77h-2c0.162 1.12 0.325 2.23 0.492 3.38 0.779 7.02 0.657 14.1 0.638 21.1-0.00541 2.43-2.27e-6 4.87 0.00635 7.3-6.6e-4 1.55-0.00194 3.1-0.00391 4.64 0.00202 0.727 0.00405 1.45 0.00613 2.2-0.0239 5.1-0.0239 5.1-1.14 7.33-0.0695 1.54-0.0845 3.08-0.0625 4.62 0.0206 1.44 0.0412 2.89 0.0625 4.38h-9c-1.31-3.93-1.24-7.73-1.32-11.8-0.0209-0.89-0.0417-1.78-0.0632-2.7-0.0663-2.91-0.125-5.82-0.183-8.73-0.0313-1.48-0.0313-1.48-0.0632-2.98-0.274-13-0.475-26-0.499-39-0.00459-1.3-0.00918-2.6-0.0139-3.93 0.00201-1.17 0.00403-2.34 0.0061-3.55 0.00113-1.01 0.00226-2.03 0.00342-3.07 0.129-2.26 0.129-2.26 1.13-3.26zm55 8 1 2zm0 4v11h1v-11h-1zm0 23v5h1v-5h-1z" fill="#CCEDF2"/>
<path transform="translate(407 753)" d="m0 0c0.837 0.00975 1.67 0.0195 2.54 0.0295 10.7 0.307 16.8 3.44 24.4 11 2.04 2.87 2.28 4.95 2.71 8.41 0.618 1.64 1.28 3.27 2 4.88 1.84 4.46 2.78 8.33 3 13.1 0.0516 0.758 0.103 1.52 0.156 2.3 0.506 13.2-3.94 25-12.9 34.7-8.5 7.64-18.3 8.62-29.3 8.05-8.13-0.809-14.7-4.1-20-10.4-3.37-4.66-5.95-9.26-7.98-14.6-0.347-0.636-0.694-1.27-1.05-1.93-3.66-7.99-1.74-21.4 1.18-29.3 4.61-10.1 11-20.1 21.6-24.5 4.56-1.59 8.87-1.8 13.7-1.74zm-17.1 16.4c-7.74 10.9-8.59 24.1-7.25 37.1 1.03 5.41 2.88 8.27 7 12 0.928 1.3 0.928 1.3 1.88 2.62 3.51 3.93 6.89 5.1 12 5.73 7.1 0.331 11.8-0.638 17.2-5.36 5.82-5.56 7.69-11.6 8.25-19.5 0.339-18.4 0.339-18.4-7.93-34.2-5.38-4.81-9.46-6.76-16.7-6.55-6.26 0.727-10.3 3.53-14.3 8.24z" fill="#CCEDF2"/>
<path transform="translate(1195 755)" d="m0 0c6.05 3.72 11.9 8.28 14 15.2v2c0.448 1.3 0.932 2.59 1.44 3.88 4.41 11.2 4.58 26.1 0.562 37.4-3.98 8.58-10.3 15.7-19 19.7-8.78 3.13-20.3 3.65-29 0-7.81-4.07-13.5-9.87-17-18v-3h-2c-3.26-16.2-2.86-29.4 5.64-43.8 10.3-14.1 28.6-20.4 45.3-13.5zm-33.7 15.2c-5.31 8.33-6.51 16.7-6.57 26.3-0.0206 0.917-0.0412 1.83-0.0625 2.78-0.0344 6.04 0.73 10.5 3.31 16 2.32 2.24 2.32 2.24 5 4 1.21 1.3 1.21 1.3 2.44 2.62 4.73 4.39 9.8 4.84 16 4.69 5.63-0.696 9.34-3.15 13.3-7.06 5.58-8.3 5.71-15.8 5.69-25.6 0.0425-1.89 0.0425-1.89 0.0859-3.83 0.0184-8.83-1.16-16.1-7.43-22.7-5.23-4.76-9.47-6.55-16.6-6.37-6.55 0.78-11.2 4.15-15.3 9.24z" fill="#CAEBF0"/>
<path transform="translate(82,754)" d="m0 0c2.02 0.09 4.05 0.246 6.06 0.438 1.66 0.153 1.66 0.153 3.35 0.309 0.855 0.0838 1.71 0.168 2.59 0.254 1.13 3.4 1.13 5.99 1.13 9.58 0.00263 0.996 0.00263 0.996 0.00531 2.01 0.0044 2.2 0.00149 4.39-0.00189 6.58 6.74e-4 1.53 0.00164 3.06 0.0029 4.59 0.00147 3.21-6.7e-4 6.41-0.00534 9.62-0.00568 4.1-0.00243 8.2 0.00357 12.3 0.00362 3.16 0.00246 6.32-1.28e-4 9.47-6.65e-4 1.51 1.44e-4 3.02 0.00248 4.53 0.00255 2.12-0.00135 4.24-0.0069 6.35-7.96e-4 1.2-0.00159 2.41-0.00241 3.65-0.122 3.19-0.526 6.19-1.13 9.32-1.6 0.135-3.21 0.232-4.81 0.312-0.893 0.058-1.79 0.116-2.71 0.176-2.48-0.488-2.48-0.488-4.12-2.58-1.66-3.55-1.71-6.05-1.66-9.96 0.0112-1.81 0.0112-1.81 0.0227-3.65 0.0273-1.52 0.0546-3.04 0.0828-4.61 0.0619-4.85 0.124-9.69 0.188-14.7-19.8-0.495-19.8-0.495-40-1-0.913 8.92-0.913 8.92-0.562 17.4 0.58 6.21 0.664 12.3 0.562 18.6h-10c-1.96-8.97-2.26-17.6-2.2-26.7 0.00374-1.49 0.00658-2.97 0.00858-4.46 0.00756-3.87 0.0271-7.75 0.0494-11.6 0.0206-3.97 0.0296-7.94 0.0397-11.9 0.0213-7.76 0.0564-15.5 0.0977-23.3h12c0.33 10.9 0.66 21.8 1 33h39c-0.0396-10.8-0.0396-10.8-0.0901-21.6-0.00292-1.35-0.00547-2.7-0.00757-4.05-0.00512-0.707-0.0102-1.41-0.0155-2.14-3.11e-4 -1.72 0.0509-3.45 0.113-5.17 0.33-0.33 0.66-0.66 1-1zm0 69v5h1v-5h-1z" fill="#CFF1F6"/>
<path transform="translate(169,757)" d="m0 0c4.27 3.25 7.51 6.1 8.88 11.4 0.0412 0.866 0.0825 1.73 0.125 2.62l2 2c0.378 1.32 0.702 2.66 1 4 0.324 0.892 0.647 1.78 0.98 2.7 3.7 12 2.38 25.3-2.73 36.7-4.88 8.55-11.2 13.8-20.2 17.6-3.56 0.875-3.56 0.875-7 1-1.15 0.0561-1.15 0.0561-2.33 0.113-9.94 0.29-18.1-1.35-25.7-8.11-5.45-6.51-9.98-13.5-11-22h-1c-0.572-19.6-0.572-19.6 3-27 0.352-0.816 0.704-1.63 1.07-2.47 4.61-10.1 10.9-16.7 20.9-21.5 9.42-3.36 23.5-1.99 32 3zm-34 9c-0.556 0.473-1.11 0.946-1.68 1.43-7.73 7.73-8.92 19.6-9.35 30 0.0562 6.46 0.132 12.3 4.34 17.4 0.887 0.722 1.77 1.44 2.69 2.19 0.784 1.03 1.57 2.06 2.38 3.12 4.63 5.07 8.86 6.06 15.5 6.44 7.71-0.193 12.1-3.66 17.5-8.88 4.54-7.5 5.12-15 5.06-23.6 0.02-1.02 0.04-2.04 0.0605-3.09-0.00644-10.1-2.71-18-9.72-25.3-4.91-4.51-9.54-5.24-16-5.04-4.45 0.665-7.37 2.51-10.7 5.41zm-22 21 1 2z" fill="#CAEBF0"/>
<path transform="translate(1385,755)" d="m0 0c4.13-0.0748 8.25-0.129 12.4-0.165 1.4-0.015 2.8-0.0354 4.2-0.0615 16.3-0.297 16.3-0.297 23.7 4.8 4.02 4.04 5.4 6.55 5.72 12.4 0.371 0.949 0.743 1.9 1.12 2.88 1.52 5.44 0.835 10.7-1.69 15.8-2.57 4.05-6.34 6.89-10.4 9.31h-2c2.8 5.09 6.42 9.51 10 14.1 1.25 1.59 2.5 3.19 3.75 4.79 0.552 0.701 1.1 1.4 1.67 2.13 0.521 0.669 1.04 1.34 1.58 2.03 0.548 0.668 1.1 1.34 1.66 2.03 1.93 2.84 2.02 5.61 2.34 8.97-9.19 0.266-9.19 0.266-12.9-2.36-1.88-2.12-3.46-4.31-5.06-6.64-0.833-1.16-1.67-2.31-2.51-3.47-1.74-2.41-3.46-4.83-5.16-7.26-4.13-6.36-4.13-6.36-10.3-10.3-2.67-0.168-2.67-0.168-5 0-1.3 5.94-1.11 11.8-1.06 17.9 0.00451 1.07 0.00902 2.14 0.0137 3.24 0.0117 2.63 0.0297 5.26 0.0488 7.88h-11c-2.93-8.8-2.15-18.9-2.13-28.1-9.57e-4 -1.31-0.00191-2.61-0.0029-3.96-0.00146-2.74 6.3e-4 -5.48 0.00534-8.23 0.00574-3.51 0.00238-7.02-0.00357-10.5-0.00448-3.37-0.00135-6.73 0.00113-10.1-0.00304-1.89-0.00304-1.89-0.00613-3.81 0.00315-1.17 0.0063-2.33 0.00955-3.53 7.96e-4 -1.02 0.00159-2.05 0.00241-3.1 0.113-2.39 0.441-4.4 1.13-6.68zm12 9c-0.356 4.25-0.469 8.52-0.613 12.8-0.0745 2.14-0.165 4.28-0.257 6.43-0.0485 1.36-0.0961 2.71-0.143 4.07-0.046 1.24-0.092 2.48-0.139 3.76-0.175 3.09-0.175 3.09 2.15 4.97 6.28 0.649 10.8-0.374 16-4 3.34-2.74 4.82-4.3 5.92-8.52 0.843-8.32 0.843-8.32-2.29-15.8-4.7-4.25-10.5-4.72-16.6-4.88-2.88-0.152-2.88-0.152-4 1.19zm23 12v7h1v-7h-1zm-35 30 1 2zm0 3v10h1v-10h-1z" fill="#CEF0F5"/>
<path transform="translate(201,755)" d="m0 0c4.13-0.0748 8.25-0.129 12.4-0.165 1.4-0.015 2.8-0.0354 4.2-0.0615 9.08-0.165 16.4-0.106 24.2 5.04 2.61 2.53 4.49 5.01 6.25 8.19-0.33 0.99-0.66 1.98-1 3 0.652 1.34 1.32 2.67 2 4 0.977 5.97 0.622 10.8-2.69 15.9-3.24 4.28-6.87 7.1-11.3 10.1 1.79 2.4 3.58 4.79 5.38 7.19 0.539 0.72 1.08 1.44 1.63 2.18 2.63 3.51 5.28 7.02 7.98 10.5 0.456 0.586 0.913 1.17 1.38 1.78 1.25 1.6 2.51 3.2 3.77 4.8 1.86 2.57 1.86 2.57 2.86 5.57h-3c-0.601 0.0696-1.2 0.139-1.82 0.211-1.14 0.0812-1.14 0.0812-2.3 0.164-1.12 0.104-1.12 0.104-2.26 0.211-7.38-1.65-11.8-9.25-15.8-15.1-1.49-2.18-2.99-4.37-4.51-6.54-1.08-1.57-2.1-3.18-3.11-4.8-3.25-3.1-6.85-3.47-11.2-4.1 0.00524 0.838 0.0105 1.68 0.0159 2.54 0.017 3.1 0.0296 6.21 0.0391 9.31 0.00751 2.01 0.0202 4.01 0.033 6.02 0.00322 1.26 0.00645 2.51 0.00977 3.81 0.00524 1.16 0.0105 2.33 0.0159 3.52-0.114 2.8-0.114 2.8-1.11 4.8h-10c-1.16-3.47-1.36-6.72-1.56-10.3-0.0423-0.775-0.0845-1.55-0.128-2.35-0.601-12.6-0.418-25.3-0.376-37.9 0.00561-2.66 0.00959-5.33 0.0137-7.99 0.0109-6.46 0.0275-12.9 0.0488-19.4zm13 9c-0.826 7.54-1.08 15.2-1.25 22.8-0.0258 1.13-0.0516 2.26-0.0781 3.42 0.109 2.81 0.109 2.81 1.58 4.72 2.86 1.82 5.09 1.24 8.33 0.75 5.16-1.37 8.94-4.31 12.9-7.83 2.32-4.17 2.87-8.06 2.56-12.8-1.63-5.36-5.16-8.38-10-11-2.94-0.922-5.61-1.14-8.69-1.12-0.788-0.00258-1.58-0.00516-2.39-0.00781-1.93-0.0785-1.93-0.0785-2.93 1.13zm31 3 1 2z" fill="#CBECF1"/>
<path transform="translate(952,755)" d="m0 0h13c0.0272 2.52 0.047 5.04 0.0625 7.56 0.00838 0.704 0.0168 1.41 0.0254 2.13 0.0209 4.53-0.409 8.81-1.09 13.3 0.409 2.05 0.409 2.05 1 4v6h40c-0.0395-9.36-0.0395-9.36-0.0901-18.7-0.0025-1.17-5e-3 -2.34-0.00757-3.54-0.00524-1.19-0.0105-2.39-0.0159-3.62 0.114-3.12 0.114-3.12 1.11-7.12h11c0.823 3.29 1.09 5.02 0.881 8.24-0.0722 1.26-0.0722 1.26-0.146 2.54-0.0557 0.91-0.111 1.82-0.169 2.76-0.707 13.3-0.678 26.5-0.629 39.8 0.00503 2.4 0.00959 4.81 0.0137 7.21 0.0108 5.8 0.028 11.6 0.0488 17.4h-10c-2.1-4.19-2.25-6.05-2.23-10.6 0.00193-1.28 0.00387-2.56 0.00586-3.88 0.00931-0.997 0.00931-0.997 0.0188-2.01 0.0183-2.03 0.0205-4.06 0.0203-6.1 0.0451-9.96 0.0451-9.96 1.19-13.4-13.5 0.33-27.1 0.66-41 1v6c-0.33 0.66-0.66 1.32-1 2-0.0853 2.03-0.107 4.07-0.0977 6.1 0.00322 1.21 0.00645 2.42 0.00977 3.67 0.00838 1.27 0.0168 2.54 0.0254 3.85 0.00451 1.28 0.00902 2.56 0.0137 3.88 0.0118 3.17 0.0283 6.33 0.0488 9.5-1.46 0.081-2.92 0.139-4.38 0.188-0.812 0.0348-1.62 0.0696-2.46 0.105-0.714-0.0967-1.43-0.193-2.16-0.293-2.29-3.43-2.24-4.62-2.21-8.65 0.00338-1.16 0.00676-2.32 0.0102-3.51 0.0135-1.25 0.0269-2.5 0.0408-3.79 0.00795-1.96 0.0159-3.91 0.0235-5.87 0.0131-2.74 0.0353-5.48 0.0576-8.22 0.038-4.8 0.0663-9.61 0.0877-14.4 0.0123-2.56 0.03-5.12 0.0533-7.68 0.00653-1.15 0.0131-2.3 0.0198-3.49 0.00825-1.02 0.0165-2.04 0.025-3.09 0.154-2.27 0.154-2.27-1.11-3.3-0.0732-2.7-0.0924-5.37-0.0625-8.06 0.00451-0.759 0.00902-1.52 0.0137-2.3 0.0118-1.88 0.0298-3.76 0.0488-5.64z" fill="#CFF1F6"/>
<path transform="translate(306,755)" d="m0 0h55c-1.43 4.28-2.51 7.18-4.72 10.9-0.534 0.902-1.07 1.8-1.62 2.73-0.568 0.944-1.14 1.89-1.72 2.86-0.584 0.979-1.17 1.96-1.77 2.97-7.73 12.9-16 25.5-24.4 37.9-0.733 1.08-1.47 2.17-2.22 3.28-0.67 0.982-1.34 1.96-2.03 2.98-1.64 2.21-1.64 2.21-1.47 4.4 19.8 0.495 19.8 0.495 40 1 1 7 1 7 0 9h-59c-1-4-1-4 0.625-7.07 0.779-1.17 1.57-2.34 2.38-3.5 0.848-1.27 1.7-2.54 2.54-3.8 0.422-0.622 0.844-1.24 1.28-1.89 1.54-2.28 3.02-4.61 4.49-6.93 0.835-1.31 0.835-1.31 1.69-2.66 3.64-5.75 7.28-11.5 10.9-17.3 2.02-3.2 4.04-6.39 6.09-9.57 0.918-1.44 1.84-2.88 2.75-4.32 0.43-0.664 0.861-1.33 1.3-2.01 2.39-3.69 2.39-3.69 2.95-7.99 0.99-0.66 1.98-1.32 3-2-18.3-0.495-18.3-0.495-37-1-1-4-1-4 1-8zm-4 75 1 2z" fill="#C4E4E9"/>
<path transform="translate(781,754)" d="m0 0v4c0.452 1.93 0.956 3.85 1.5 5.75 0.278 0.985 0.557 1.97 0.844 2.98 0.217 0.748 0.433 1.5 0.656 2.27h2c0.11 0.615 0.219 1.23 0.332 1.86 0.159 0.808 0.317 1.62 0.48 2.45 0.151 0.801 0.302 1.6 0.457 2.43 0.553 2.32 0.553 2.32 2.24 3.71 2.09 2.17 2.14 4.04 2.55 6.98 0.52 3.64 1.22 6.33 2.94 9.56 0.468 1.47 0.904 2.95 1.31 4.44 2.05 7.04 4.42 14.3 7.84 20.8 0.848 1.8 0.848 1.8 0.848 4.8 0.99 0.495 0.99 0.495 2 1 0.625 3.06 0.625 3.06 1 6-3.4 0.35-6.61 0.492-10 0-4.94-4.94-7.37-13.2-9-20-9.73-0.0963-19.3-0.126-29 1-0.41 1.2-0.82 2.41-1.24 3.65-0.544 1.58-1.09 3.15-1.63 4.73-0.269 0.794-0.539 1.59-0.816 2.41-0.264 0.761-0.529 1.52-0.801 2.3-0.361 1.05-0.361 1.05-0.73 2.13-0.778 1.79-0.778 1.79-2.78 3.79-2.69 0.27-5.29 0.0874-8 0-1.53-3.91-0.402-6.33 1.1-10.1 0.469-1.21 0.938-2.42 1.42-3.66 0.515-1.3 1.03-2.59 1.54-3.89 0.776-1.99 1.55-3.98 2.32-5.97 0.509-1.31 1.02-2.62 1.53-3.93 1.87-4.81 3.61-9.65 5.27-14.5 2.9-8.42 6.35-16.6 9.9-24.8 0.822-1.9 1.63-3.81 2.43-5.72 0.428-0.995 0.856-1.99 1.3-3.02 0.357-0.838 0.714-1.68 1.08-2.54 2.49-4.13 5.48-2.5 9.11-0.836zm-6 21c-1.36 2.99-2.69 5.99-4 9-0.442 1.01-0.442 1.01-0.893 2.05-0.984 2.27-1.95 4.55-2.92 6.83-0.326 0.75-0.652 1.5-0.989 2.27-1.95 4.32-1.95 4.32-1.2 8.85 0.973 1.19 0.973 1.19 2.77 1.11 0.749-0.00524 1.5-0.0105 2.27-0.0159 0.809-0.00322 1.62-0.00645 2.45-0.00977 1.28-0.0126 1.28-0.0126 2.58-0.0254 0.854-0.00451 1.71-0.00902 2.59-0.0137 2.12-0.0118 4.23-0.0298 6.35-0.0488 0.106-5.58 0.106-5.58-1-11h-2c0.33-0.99 0.66-1.98 1-3h-2c0.0825-0.969 0.165-1.94 0.25-2.94 0.0399-4.87-2.08-8.8-4.25-13.1h-1z" fill="#C1E1E6"/>
<path transform="translate(909 753)" d="m0 0c1.25 0.00918 1.25 0.00918 2.52 0.0186 7.6 0.192 14.4 1.38 20.5 6.29 1.7 2.12 1.7 2.12 1.87 4.27l-1.17 5.86c-1.7 0.676-1.7 0.676-4 1-2.37-1.14-2.37-1.14-4.88-2.81-6.53-4.11-12.3-6.43-20.1-5.19-9.41 3.56-13.7 9.95-18 18.6-3.42 7.97-4.31 20.2-1.26 28.4 4.06 7.47 10.7 13.2 18.7 15.8 8.83 0.662 15.6-0.335 23.2-5 3.2-1.79 4.68-2.25 8.25-1.81 1 3 1 3 0.375 5.44-3.17 5.9-9.3 8.42-15.4 10.6-2.68 0.63-5.26 0.882-8 1-1.19 0.0599-1.19 0.0599-2.41 0.121-10.3 0.269-18.3-1.82-26.6-8.12-2.53-2.42-4.25-4.98-6-8-0.633-1.08-1.27-2.17-1.92-3.29-5.23-9.6-7.35-19-4.56-29.7 3.9-12.4 10.2-22.9 21.5-30 5.73-2.83 11-3.52 17.3-3.44z" fill="#CDEFF4"/>
<path transform="translate(1126,756)" d="m0 0c3.12 1.94 3.12 1.94 5 4 0 3.51-0.375 6.56-1 10-3.77-0.503-6.64-1.75-9.96-3.58-5.9-3.24-11.2-6.16-18-4.42-7.4 2.48-12.2 6.17-16 13-3.6 7.59-5.15 14.1-5.19 22.6-0.0213 1.95-0.0213 1.95-0.043 3.94 0.213 3.23 0.55 4.82 2.23 7.5 0.268 0.639 0.536 1.28 0.812 1.94 1.65 2.86 3.77 4.81 6.19 7.06 1.42 1.33 1.42 1.33 2.88 2.69 5.84 4.32 12.1 5.04 19.1 4.31 7.26-1.34 12.4-4.2 18-9 1.49 1.29 1.49 1.29 3 3 0.125 3.38 0.125 3.38-1 7-6.19 6.51-15.1 8.74-23.8 9.12-10.8 0.219-18.7-1.08-27.2-8.12-3.64-3.6-7.02-7.23-9-12v-3c-0.66-0.33-1.32-0.66-2-1v-5h-2c-0.818-14.5 1.17-29.6 10.8-41.1 11.8-12.6 31.3-16.6 47.2-8.86z" fill="#CBECF1"/>
<path transform="translate(1495,753)" d="m0 0c0.66 1.32 1.32 2.64 2 4-0.33 0.33-0.66 0.66-1 1-0.0408 2-0.0425 4 0 6-0.969-0.33-1.94-0.66-2.94-1-5.99-1.67-11.6-1.97-17.3 0.625-8.08 4.64-10.7 12-13.8 20.4-0.262 0.669-0.523 1.34-0.793 2.03-2.5 7.68-1.79 18.8 1.79 26 1.62 1.71 3.29 3.37 5 5 1.11 1.55 1.11 1.55 2.25 3.12 3.55 3.71 6.67 5.22 11.8 5.88 2.65-0.307 5.08-0.826 7.64-1.55 2.73-0.516 4.69-0.137 7.36 0.555-0.33 2.64-0.66 5.28-1 8-8.79 3.27-19.2 3.28-28 0-6.05-3.5-10.4-8.08-14-14-0.562-0.902-1.12-1.8-1.7-2.73-5.59-10.3-6.34-21.9-3.37-33.2 1.16-3.48 2.49-6.72 4.07-10 0.669-1.4 0.669-1.4 1.35-2.84 4.11-7.65 9.93-13.1 18.1-16.1 7.28-1.9 15-1.3 22.5-1.06z" fill="#CBECF1"/>
<path transform="translate(806,755)" d="m0 0h63c0 4 0 4-1 8-7.92 0.33-15.8 0.66-24 1-0.661 6.61-1.13 12.8-1.06 19.4 0.00379 0.847 0.00757 1.69 0.0115 2.57 0.0121 2.67 0.0307 5.33 0.051 8 0.0265 3.54 0.0465 7.08 0.0625 10.6 0.0083 0.811 0.0166 1.62 0.0251 2.46 0.0251 5.69 0.0251 5.69-1.09 7.92-0.0831 1.38-0.107 2.75-0.0977 4.13 0.00322 0.806 0.00645 1.61 0.00977 2.44 0.00838 0.842 0.0168 1.68 0.0254 2.55 0.00451 0.849 0.00902 1.7 0.0137 2.57 0.0118 2.1 0.0297 4.2 0.0488 6.3h-10c-2.07-4.14-2.24-5.82-2.21-10.3 0.00338-1.28 0.00676-2.56 0.0102-3.87 0.0135-1.39 0.0271-2.78 0.0408-4.17 0.00627-1.43 0.0115-2.85 0.0158-4.28 0.0133-3.75 0.0377-7.5 0.0654-11.2 0.0432-6.01 0.0728-12 0.096-18 0.0103-2.1 0.0273-4.21 0.045-6.31 0.00653-1.27 0.0131-2.54 0.0198-3.84 0.00825-1.12 0.0165-2.25 0.025-3.4 0.181-2.46 0.181-2.46-1.11-3.52-1.71-0.157-3.42-0.251-5.13-0.316-1.03-0.0419-2.07-0.0838-3.13-0.127-1.09-0.0393-2.18-0.0786-3.3-0.119-1.09-0.0432-2.18-0.0864-3.31-0.131-2.71-0.106-5.42-0.208-8.13-0.307-1.08-3.37-0.925-4.3 0-8z" fill="#CFF1F6"/>
<path transform="translate(1310,755)" d="m0 0h62c1 4 1 4 0 8-12.4 0.495-12.4 0.495-25 1-0.165 3.9-0.33 7.8-0.5 11.8-0.0522 1.21-0.104 2.41-0.158 3.65-0.25 6.08-0.383 12.1-0.304 18.2-0.0374 2.31-0.0374 2.31-0.6 6.13-0.591 3.1-0.591 3.1 0.0273 5.81 0.669 4.22 0.681 8.3 0.66 12.6 0.0058 1.21 0.0058 1.21 0.0117 2.44-0.00129 0.775-0.00258 1.55-0.00391 2.35-0.00113 0.7-0.00226 1.4-0.00342 2.12-0.129 1.9-0.129 1.9-1.13 4.9-1.46-0.0871-2.92-0.195-4.38-0.312-0.812-0.058-1.62-0.116-2.46-0.176-2.16-0.512-2.16-0.512-4.16-3.51-1.97-13.8-1.11-28.1-1.06-42 0.00503-2.34 0.00959-4.67 0.0137-7.01 0.01-5.66 0.0296-11.3 0.0488-17-7.26-0.33-14.5-0.66-22-1-2-4-2-4-1-8zm24 39v20h1v-20h-1z" fill="#CFF1F6"/>
<path transform="translate(537,755)" d="m0 0h63v6c-2.56 2.56-3.67 2.3-7.23 2.41-1.03 0.0387-2.06 0.0773-3.12 0.117-1.08 0.0309-2.16 0.0619-3.27 0.0938-1.63 0.058-1.63 0.058-3.3 0.117-2.69 0.0945-5.39 0.18-8.08 0.258-2.19 3.54-2.24 6.4-2.23 10.5-2.92e-4 0.644-5.84e-4 1.29-8.85e-4 1.95 0.00139 2.12 0.0169 4.24 0.0326 6.36 0.00373 1.47 0.00658 2.95 0.00858 4.42 0.00762 3.87 0.0273 7.75 0.0494 11.6 0.0205 3.95 0.0296 7.91 0.0397 11.9 0.0214 7.76 0.0555 15.5 0.0977 23.3-3.3-0.33-6.6-0.66-10-1-0.33-1.65-0.66-3.3-1-5h-1c-0.0232-8.03-0.0409-16.1-0.0518-24.1-0.00522-3.73-0.0123-7.46-0.0236-11.2-0.0109-3.6-0.0168-7.2-0.0194-10.8-0.00185-1.37-0.00546-2.75-0.0109-4.12-0.00725-1.92-0.00768-3.84-0.0078-5.77-0.00222-1.09-0.00444-2.19-0.00673-3.32 0.12-2.71 0.12-2.71 1.12-5.71-1.07 0.0236-1.07 0.0236-2.17 0.0476-3.23 0.0622-6.47 0.101-9.7 0.14-1.69 0.0377-1.69 0.0377-3.42 0.0762-1.61 0.0145-1.61 0.0145-3.26 0.0293-1.49 0.0236-1.49 0.0236-3.02 0.0476-0.802-0.112-1.6-0.225-2.43-0.341-0.66-0.99-1.32-1.98-2-3 0.33-1.65 0.66-3.3 1-5z" fill="#CFF1F6"/>
<path transform="translate(1537,755)" d="m0 0h12c0.867 3.47 1.09 5.76 1.01 9.26-0.0233 1.05-0.0466 2.1-0.0707 3.18-0.0302 1.13-0.0603 2.25-0.0914 3.41-0.026 1.16-0.052 2.32-0.0787 3.52-0.111 4.97-0.235 9.94-0.358 14.9-0.0878 3.63-0.169 7.25-0.25 10.9-0.0302 1.13-0.0603 2.25-0.0914 3.41-0.0233 1.05-0.0466 2.1-0.0707 3.18-0.023 0.921-0.046 1.84-0.0697 2.79-0.0196 2.39-0.0196 2.39 0.576 4.36 0.5 2.11 0.5 2.11 0.5 9.11 9.57 0.33 19.1 0.66 29 1 1 5 1 5 0 8-3.27 1.63-6.88 1.14-10.5 1.13-0.838 9.57e-4 -1.68 0.00191-2.54 0.0029-1.77 6.81e-4 -3.55-0.00117-5.32-0.00534-2.72-0.00536-5.45-4.87e-5 -8.17 0.00635-1.72-6.61e-4 -3.44-0.00194-5.16-0.00391-1.23 0.00304-1.23 0.00304-2.48 0.00613-5.74-0.024-5.74-0.024-6.86-1.14-0.125-2.4-0.186-4.78-0.205-7.18-0.0099-0.751-0.0198-1.5-0.03-2.28-0.0317-2.49-0.0564-4.99-0.0811-7.48-0.0206-1.72-0.0416-3.45-0.063-5.17-0.0553-4.55-0.105-9.1-0.153-13.6-0.0502-4.64-0.106-9.28-0.161-13.9-0.108-9.11-0.209-18.2-0.307-27.3z" fill="#CEF0F5"/>
<path transform="translate(691,932)" d="m0 0h317c-0.33 1.32-0.66 2.64-1 4-0.602-3.8e-4 -1.2-7.59e-4 -1.83-0.00115-35.7-0.0224-71.3-0.0395-107-0.0499-4.28-0.00125-8.56-0.00255-12.8-0.00387-1.28-3.93e-4 -1.28-3.93e-4 -2.58-7.95e-4 -13.8-0.00436-27.6-0.0122-41.4-0.0214-14.2-0.00934-28.3-0.0149-42.5-0.0169-8.74-0.00137-17.5-0.00572-26.2-0.0138-5.99-0.00527-12-0.00689-18-0.00558-3.46 6.43e-4 -6.92-3.7e-4 -10.4-0.0057-3.74-0.00494-7.49-0.00379-11.2-0.00105-1.1-0.00291-2.21-0.00583-3.34-0.00883-1.5 0.00299-1.5 0.00299-3.02 0.00603-1.3-5.7e-4 -1.3-5.7e-4 -2.62-0.00115-2.14-0.00854-2.14-0.00854-4.08 1.12-5.54 0.231-5.54 0.231-8-1-1.5-0.0954-3-0.131-4.5-0.133-0.887-0.00129-1.77-0.00258-2.69-0.00391-1.39 0.0058-1.39 0.0058-2.81 0.0117-0.928-0.00387-1.86-0.00773-2.81-0.0117-1.33 0.00193-1.33 0.00193-2.69 0.00391-1.22 0.00169-1.22 0.00169-2.47 0.00342-2.1 0.00138-2.1 0.00138-4.03 1.13 0.33-1.65 0.66-3.3 1-5z" fill="#000002"/>
<path transform="translate(727 935)" d="m0 0c0.985-0.00261 1.97-0.00522 2.99-0.0079 1.64 0.00335 1.64 0.00335 3.3 0.00676 1.15-0.00156 2.3-0.00312 3.49-0.00473 3.21-0.00331 6.41-0.0021 9.62 9.86e-4 3.45 0.00225 6.91-0.00123 10.4-0.00398 6.77-0.00446 13.5-0.00348 20.3-5.87e-4 5.5 0.00225 11 0.00257 16.5 0.00148 0.782-1.53e-4 1.56-3.06e-4 2.37-4.64e-4 1.59-3.2e-4 3.18-6.44e-4 4.76-9.73e-4 14.9-0.00285 29.8 4.31e-4 44.7 0.0058 12.8 0.00447 25.6 0.00369 38.4-9.19e-4 14.9-0.00535 29.7-0.00746 44.6-0.00439 1.58 3.19e-4 3.16 6.33e-4 4.75 9.43e-4 0.779 1.54e-4 1.56 3.09e-4 2.36 4.68e-4 5.5 8.65e-4 11-5.97e-4 16.5-0.00295 6.7-0.0028 13.4-0.00206 20.1 0.00328 3.42 0.00264 6.84 0.00364 10.3 3.51e-4 3.7-0.00271 7.4 6.7e-4 11.1 0.00568 1.09-0.00223 2.18-0.00446 3.3-0.00676 1.48 0.00391 1.48 0.00391 2.99 0.0079 0.855 1.62e-4 1.71 3.25e-4 2.59 4.92e-4 2.05 0.125 2.05 0.125 4.05 1.13-0.665 4.39-2.19 7.98-4 12-0.103-0.639-0.206-1.28-0.312-1.94-0.227-0.681-0.454-1.36-0.688-2.06-0.99-0.33-1.98-0.66-3-1-0.758-0.328-1.52-0.656-2.3-0.993-13.2-4.92-29.3-3.31-43.1-3.33-2.54-0.00931-5.09-0.0195-7.63-0.0304-5.45-0.0216-10.9-0.0372-16.3-0.0474-7.88-0.0147-15.8-0.0402-23.6-0.0683-12.8-0.0453-25.6-0.082-38.4-0.113-12.4-0.0302-24.8-0.0646-37.2-0.104-0.767-0.00246-1.53-0.00492-2.32-0.00746-3.85-0.0124-7.69-0.0248-11.5-0.0373-31.8-0.103-63.7-0.192-95.5-0.273v-2c2.42-1.21 3.94-1.13 6.64-1.13z" fill="#CFF1F6"/>
<path transform="translate(272,755)" d="m0 0h13v78c-4.49 0.898-6.68 0.903-11 0-0.838-6.06-1.31-12.1-1.56-18.2-0.0425-1.02-0.0849-2.04-0.129-3.1-0.666-18.9-0.389-37.8-0.309-56.7z" fill="#C8E9EE"/>
<path transform="translate(1500,756)" d="m0 0c5.01 1 5.87 1.34 9.19 4.75 0.674 0.675 1.35 1.35 2.04 2.05 2.27 2.82 3.77 5.53 3.77 9.2 0.618 1.57 1.27 3.13 1.94 4.69 4.45 11 4.56 23.2 0.398 34.4-3.19 7-7.28 14-13.3 18.9h-3c-2-3-2-3-1.88-6.12 0.882-3.9 2.18-7.09 3.94-10.7 2.19-5.16 2.1-10.3 2.06-15.8-0.00411-0.796-0.00822-1.59-0.0125-2.41 0.19-13 0.19-13-4.11-25v-3h-2c0.33-3.63 0.66-7.26 1-11zm6 28 1 4z" fill="#CCEEF3"/>
<path transform="translate(633,755)" d="m0 0h15c0.33 1.32 0.66 2.64 1 4 0.613 2.09 1.24 4.17 1.88 6.25 0.327 1.08 0.655 2.16 0.992 3.27 1.03 3.17 2.17 6.26 3.35 9.37 1.65 4.45 3.07 8.98 4.53 13.5 1.15 3.51 2.35 6.92 3.89 10.3 1.39 3.42 1.84 6.11 2.04 9.78 0.0657 1.05 0.131 2.1 0.199 3.18 0.0561 1.18 0.0561 1.18 0.113 2.38h2c0.33 0.99 0.66 1.98 1 3-2 3-2 3-4.44 3.81-2.56 0.188-2.56 0.188-5.56-1.81-1.1-2.46-1.1-2.46-2.06-5.38-1.34-4.02-1.34-4.02-3.12-7.85-0.269-0.585-0.539-1.17-0.816-1.77 0.33-0.66 0.66-1.32 1-2-0.66-0.33-1.32-0.66-2-1-0.781-1.89-0.781-1.89-1.5-4.25-0.768-2.44-1.53-4.82-2.5-7.19-0.937-2.4-1.66-4.78-2.38-7.25-1.76-5.96-3.84-11.9-6.71-17.4-1.23-2.57-1.54-5.11-1.92-7.91h-2c-0.66-1.65-1.32-3.3-2-5z" fill="#CFF1F6"/>
<path transform="translate(320,823)" d="m0 0c20.3 0.495 20.3 0.495 41 1 0.495 2.48 0.495 2.48 1 5-13.9-0.33-27.7-0.66-42-1-0.33-0.66-0.66-1.32-1-2 0.33-0.99 0.66-1.98 1-3z" fill="#000002"/>
<path transform="translate(885,809)" d="m0 0c0.536 0.681 1.07 1.36 1.62 2.06 0.784 0.969 1.57 1.94 2.38 2.94 0.459 0.589 0.918 1.18 1.39 1.79 4.3 5.32 8.65 8.39 15.6 9.21 7.77 0.518 14.1-1.13 20.8-5.19 3.2-1.79 4.68-2.25 8.25-1.81 0.495 1.49 0.495 1.49 1 3-0.887-0.0825-1.77-0.165-2.69-0.25-4.14 0.312-5.13 1.65-8.31 4.25-6.99 3.83-14.1 5.4-22 4-7.12-3.13-15-9.67-18-17v-3z" fill="#000002"/>
<path transform="translate(537,755)" d="m0 0h63c-0.33 0.99-0.66 1.98-1 3-0.718-0.00222-1.44-0.00444-2.17-0.00673-6.77-0.02-13.5-0.0353-20.3-0.0451-3.48-0.00522-6.96-0.0123-10.4-0.0236-4-0.013-8-0.0178-12-0.0222-1.87-0.00774-1.87-0.00774-3.78-0.0156-1.16-7.55e-5 -2.32-1.51e-4 -3.52-2.29e-4 -1.02-0.00222-2.04-0.00444-3.1-0.00673-2.39 0.107-4.4 0.433-6.68 1.12v-4z" fill="#000002"/>
<path transform="translate(1310,755)" d="m0 0h62c0.495 1.98 0.495 1.98 1 4-0.66-0.33-1.32-0.66-2-1-1.97-0.0914-3.95-0.118-5.92-0.114-1.86 1.13e-4 -1.86 1.13e-4 -3.76 2.29e-4 -1.36 0.00511-2.72 0.0103-4.08 0.0156-1.39 0.00186-2.77 0.00329-4.16 0.00429-3.65 0.00382-7.31 0.0136-11 0.0247-3.73 0.0102-7.45 0.0148-11.2 0.0198-7.31 0.0107-14.6 0.0278-21.9 0.0488 0.33-0.99 0.66-1.98 1-3z" fill="#000002"/>
<path transform="translate(806,755)" d="m0 0h63c0.495 1.49 0.495 1.49 1 3h-64v-3z" fill="#000002"/>
<path transform="translate(1087,816)" d="m0 0c0.485 0.398 0.969 0.797 1.47 1.21 6.62 5.23 12.6 8.43 21.2 8.07 8.21-0.98 14.1-3.91 20.4-9.28 0.99 0.99 1.98 1.98 3 3-0.33 0.66-0.66 1.32-1 2-0.876-0.35-0.876-0.35-1.77-0.707-2.31-0.567-2.31-0.567-4.05 1.07-0.615 0.643-1.23 1.29-1.86 1.95-5.2 4.85-9.88 5.38-16.8 6-5.26-0.461-11.2-1.35-15.4-4.79-1.2-1.52-1.2-1.52-1.2-3.52-1.32-0.66-2.64-1.32-4-2v-3z" fill="#000002"/>
<path transform="translate(930,757)" d="m0 0c1.38 1.29 2.72 2.61 4 4-0.33 0.66-0.66 1.32-1 2-0.701-0.619-1.4-1.24-2.12-1.88-7.6-5.62-17.7-5.78-26.9-5.12-9.81 1.56-16.2 4.66-23 12 0-3 0-3 1.62-4.9 12.5-11.3 32.1-15.2 47.4-6.1z" fill="#000002"/>
<path transform="translate(425 756)" d="m0 0c4.26 2.94 7.74 6.63 11.2 10.5-0.33 0.66-0.66 1.32-1 2-0.617-0.615-1.23-1.23-1.87-1.86-9.08-8.66-15.7-10.6-28-10.5-9.85 0.311-16.6 3.98-23.6 10.7-0.516 0.557-1.03 1.11-1.56 1.69 0-3 0-3 1.29-4.68 11.1-11 28.9-14.9 43.6-7.8z" fill="#000002"/>
<path transform="translate(1550,824)" d="m0 0h29c0.33 1.65 0.66 3.3 1 5-13.9-0.495-13.9-0.495-28-1-0.66-1.32-1.32-2.64-2-4z" fill="#000002"/>
<path transform="translate(306,755)" d="m0 0h55c-0.33 0.99-0.66 1.98-1 3h-55c0.33-0.99 0.66-1.98 1-3z" fill="#000002"/>
<path transform="translate(41,786)" d="m0 0c0.33 0.66 0.66 1.32 1 2h39v2c-5.42 1.68-11.2 1.19-16.8 1.19-2.07 0.00218-4.14 0.0203-6.21 0.0393-1.32 0.00193-2.63 0.00387-3.99 0.00586-1.2 0.00411-2.4 0.00822-3.64 0.0125-3.44-0.248-6.17-1.01-9.37-2.24v-3z" fill="#000002"/>
<path transform="translate(130,816)" d="m0 0c0.66 0.742 1.32 1.49 2 2.25 4.98 4.87 9.95 6.99 16.9 7.38 6.43-0.195 10.2-2.64 15.1-6.62 0.99-0.66 1.98-1.32 3-2-2.28 5.59-6.7 9.33-12 12-2.94 0.363-2.94 0.363-6 0.312-1.52-0.0058-1.52-0.0058-3.06-0.0117-6.28-0.643-10.8-3.7-14.9-8.3-0.938-2.88-0.938-2.88-1-5z" fill="#000002"/>
<path transform="translate(1126,756)" d="m0 0c3.12 2.06 3.12 2.06 5 4v2c-0.572-0.299-1.14-0.598-1.73-0.906-3.63-1.75-7.42-2.89-11.3-4.09-1.24-0.413-2.47-0.825-3.75-1.25-8.79-2.05-17.3-0.387-25.1 3.9-2.13 1.35-4.13 2.81-6.12 4.35-0.66-0.33-1.32-0.66-2-1 11.7-11.3 29.9-14.4 45-7z" fill="#000002"/>
<path transform="translate(1160,816)" d="m0 0c0.424 0.398 0.848 0.797 1.29 1.21 6.18 5.58 11.8 8.4 20.2 8.16 5.21-0.757 9.2-3.5 13.5-6.36-1.35 4.42-3.17 6.44-7 9-6.37 2.05-13.9 1.82-20-1-2.88-2-2.88-2-5-4v-2h-2c-0.33-1.65-0.66-3.3-1-5z" fill="#000002"/>
<path transform="translate(389,817)" d="m0 0c0.447 0.41 0.895 0.82 1.36 1.24 0.907 0.808 0.907 0.808 1.83 1.63 0.592 0.534 1.18 1.07 1.79 1.62 5.73 4.27 12.1 4.41 19 3.51 3.02-1.29 5.44-2.96 8-5 0.99-0.66 1.98-1.32 3-2-1.08 4.59-3.57 7.19-7.33 9.81-5.73 2.56-11.6 2.38-17.7 1.19-3.99-2.08-7.23-4.43-10-8v-4z" fill="#000002"/>
<path transform="translate(1463,813)" d="m0 0c3.62 1.21 4.05 2.27 6.12 5.38 3.09 4.06 5.52 6.12 10.5 7.41 3.55 0.318 6.63-0.371 10-1.34 2.73-0.516 4.69-0.137 7.36 0.555-0.33 0.99-0.66 1.98-1 3-7.09 1.6-15.2 2.89-21.9-0.457-2.29-1.73-4.28-3.31-6.09-5.54v-3h-2v-2h-2c-0.33-1.32-0.66-2.64-1-4z" fill="#000002"/>
<path transform="translate(1247,766)" d="m0 0c5.01 4.05 9.29 8.4 13.5 13.2 2.15 2.43 4.34 4.82 6.55 7.2 5.56 5.99 10.8 12.2 15.9 18.6-3 0-3 0-5.88-2.74-1.09-1.18-2.17-2.38-3.24-3.57-0.826-0.892-0.826-0.892-1.67-1.8-4.07-4.48-4.07-4.48-5.21-7.88-0.603-0.298-1.21-0.596-1.83-0.902-2.8-1.41-4.04-3.17-5.92-5.66-3.4-4.41-6.99-8.54-10.8-12.6-1.47-1.81-1.47-1.81-1.47-3.81z" fill="#000002"/>
<path transform="translate(1385,755)" d="m0 0c4.13-0.0748 8.25-0.129 12.4-0.165 1.4-0.015 2.8-0.0354 4.2-0.0615 16.9-0.308 16.9-0.308 23.7 5.05 0.557 0.615 1.11 1.23 1.69 1.86 0.578 0.623 1.15 1.25 1.75 1.89 0.412 0.471 0.825 0.941 1.25 1.43-0.33 0.66-0.66 1.32-1 2-0.436-0.398-0.871-0.797-1.32-1.21-0.596-0.53-1.19-1.06-1.8-1.61-0.58-0.522-1.16-1.04-1.76-1.58-5.07-3.85-9.14-4.98-15.5-4.9-0.68 0.00424-1.36 0.00849-2.06 0.0129-2.15 0.0167-4.3 0.0543-6.45 0.0926-1.47 0.0151-2.93 0.0287-4.4 0.041-3.58 0.0329-7.15 0.0846-10.7 0.146v-3z" fill="#000002"/>
<path transform="translate(964,786)" d="m0 0c0.33 0.66 0.66 1.32 1 2h40v2c-34.7 2.16-34.7 2.16-41-1v-3z" fill="#000002"/>
<path transform="translate(201,755)" d="m0 0c4.13-0.0748 8.25-0.129 12.4-0.165 1.4-0.015 2.8-0.0354 4.2-0.0615 9.24-0.168 16.6-0.113 24.4 5.29 0.66 0.639 1.32 1.28 2 1.94v2c-2.26-1.09-4.37-2.23-6.5-3.56-4.41-2.54-8.18-2.56-13.2-2.54-1.94 0.00483-1.94 0.00483-3.93 0.00977-1.36 0.00835-2.73 0.0168-4.09 0.0254-1.38 0.00502-2.76 0.00958-4.14 0.0137-3.37 0.0118-6.74 0.0282-10.1 0.0488-0.33-0.99-0.66-1.98-1-3z" fill="#000002"/>
<path transform="translate(1179 753)" d="m0 0c1.2 0.00737 1.2 0.00737 2.42 0.0149 7.22 0.144 13.4 0.779 18.8 5.99 0.959 1.14 0.959 1.14 1.94 2.31-1.44-0.453-2.88-0.912-4.31-1.38-0.801-0.255-1.6-0.51-2.43-0.773-2.26-0.852-2.26-0.852-5.26-2.85-9.02-1.55-17.1-1.43-25.4 2.69-0.866 0.433-1.73 0.866-2.62 1.31-0.99-0.33-1.98-0.66-3-1 6.19-5.46 11.8-6.37 19.8-6.31z" fill="#000002"/>
<path transform="translate(169,757)" d="m0 0c1.79 2.14 1.79 2.14 3 4-1.42-0.454-2.83-0.914-4.25-1.38-0.789-0.255-1.58-0.51-2.39-0.773-2.36-0.852-2.36-0.852-4.34-1.91-7.03-3.29-15.8-2.15-23 0.0547-2.01 0.985-4.01 1.98-6 3-0.99-0.33-1.98-0.66-3-1 1.25-0.819 2.5-1.63 3.75-2.44 1.04-0.679 1.04-0.679 2.11-1.37 9.13-5.08 25.4-3.44 34.1 1.81z" fill="#000002"/>
<path transform="translate(697 935)" d="m0 0c0.884 0.00193 1.77 0.00387 2.68 0.00586 0.92 0.0122 1.84 0.0245 2.79 0.0371 0.924 6.45e-4 1.85 0.00129 2.8 0.00195 6.86 0.0451 6.86 0.0451 9.14 1.19v2c-1.04 0.0374-2.08 0.0748-3.15 0.113-8.01 0.355-15.3 0.992-22.9 3.89 0.312-2.38 0.312-2.38 1-5 3.18-2.12 3.96-2.25 7.6-2.23z" fill="#C1E0E4"/>
<path transform="translate(476,767)" d="m0 0c6.7 5.36 12.3 11.6 18 18 0.63 0.704 1.26 1.41 1.91 2.13 5.17 5.84 10.1 11.9 15.1 17.9-3 0-3 0-5.38-2.24-0.923-1.02-1.84-2.04-2.74-3.07-0.489-0.545-0.977-1.09-1.48-1.65-3.8-4.27-7.4-8.69-11-13.2-3.38-4.03-6.97-7.85-10.6-11.6-3.81-4.03-3.81-4.03-3.81-6.24z" fill="#000002"/>
<path transform="translate(1495,753)" d="m0 0c0.66 1.32 1.32 2.64 2 4-0.99-0.33-1.98-0.66-3-1-10.9-0.56-21.1-0.867-30 6l-2-1c9.42-9.18 20.7-8.39 33-8z" fill="#000002"/>
<path transform="translate(1536,759)" d="m0 0h1v66h-1v-66z" fill="#CFF1F6"/>
<path transform="translate(1417,789)" d="m0 0v3c-4.65 4.51-9.92 7.18-16.4 7.19-1.18-0.0619-2.35-0.124-3.56-0.188-0.33-1.65-0.66-3.3-1-5 0.99 0.495 0.99 0.495 2 1 7.86 0.677 12.6-1.71 19-6z" fill="#000002"/>
<path transform="translate(1418,804)" d="m0 0c5.73 2.31 8.7 7.66 12.3 12.4 0.753 0.967 1.51 1.93 2.28 2.93 0.707 0.929 1.41 1.86 2.14 2.81 0.65 0.851 1.3 1.7 1.97 2.58 0.426 0.738 0.853 1.48 1.29 2.24-0.33 0.99-0.66 1.98-1 3-0.66-1.32-1.32-2.64-2-4h-2c-1.19-1.8-1.19-1.8-2.56-4.31-3.06-5.31-6.72-9.87-10.7-14.5-1.76-2.15-1.76-2.15-1.76-3.15z" fill="#000002"/>
<path transform="translate(235,787)" d="m0 0c0 3 0 3-2.19 5.5-6.04 5.37-9.9 5.91-17.8 5.5-0.33-0.99-0.66-1.98-1-3 1.11 0.103 2.23 0.206 3.38 0.312 6.09 0.0217 12-2.86 16.4-6.98 0.398-0.44 0.797-0.879 1.21-1.33z" fill="#000002"/>
<path transform="translate(790,807)" d="m0 0c2.44 1.19 2.44 1.19 5 3 0.812 2.69 0.812 2.69 1 5h-3l-2 2c-0.66-0.33-1.32-0.66-2-1-0.0977-6.15-0.0977-6.15 0-8l1-1z" fill="#F8FCFE"/>
<path transform="translate(482,786)" d="m0 0c0.66 0.33 1.32 0.66 2 1 1.68-0.279 3.35-0.608 5-1 0.66 0.99 1.32 1.98 2 3h-2c-0.33 1.32-0.66 2.64-1 4-0.66-1.65-1.32-3.3-2-5-0.33 1.98-0.66 3.96-1 6-2.62-1.05-3.79-1.65-5.25-4.12-0.248-0.619-0.495-1.24-0.75-1.88h2l1-2z" fill="#FAFDFF"/>
<path transform="translate(459,754)" d="m0 0c5.66 0.141 8.44 2.7 12.5 6.31 1.54 1.69 1.54 1.69 1.54 3.69h2c0.33 0.99 0.66 1.98 1 3-3.83-1.56-6.18-4.03-9-7-2.69-2.69-5.38-3.06-9-4l1-2z" fill="#000002"/>
<path transform="translate(665,812)" d="m0 0h1v5h2c0.33 0.99 0.66 1.98 1 3-2 3-2 3-4.62 3.69-0.784 0.103-1.57 0.206-2.38 0.312-0.687-2.49-1-4.38-1-7h2v2h2v-7z" fill="#F6FCFE"/>
<path transform="translate(1500,756)" d="m0 0c4.25 0.505 6.22 1.7 9.19 4.75 0.674 0.675 1.35 1.35 2.04 2.05 1.86 2.32 2.82 4.4 3.77 7.2h-2v-2l-2-1c-0.743-0.99-1.48-1.98-2.25-3-2.1-2.62-2.61-2.96-6.06-3.88-0.887-0.0412-1.77-0.0825-2.69-0.125v-4z" fill="#000002"/>
<path transform="translate(244,815)" d="m0 0c4.3 3.08 6.95 6.41 9.81 10.8 0.407 0.602 0.813 1.2 1.23 1.82 0.992 1.47 1.97 2.95 2.96 4.43-0.66 0.33-1.32 0.66-2 1-4-4.75-4-4.75-4-7h-2c-4.29-7.43-4.29-7.43-6-11z" fill="#000002"/>
<path transform="translate(633,755)" d="m0 0h15v3c-2.12 0.0808-4.25 0.139-6.38 0.188-1.18 0.0348-2.37 0.0696-3.59 0.105-1.5-0.145-1.5-0.145-3.04-0.293-0.66-0.99-1.32-1.98-2-3z" fill="#000002"/>
<path transform="translate(676,755)" d="m0 0h13c0.33 1.32 0.66 2.64 1 4-0.66-0.33-1.32-0.66-2-1-2.04-0.0707-4.08-0.0842-6.12-0.0625-1.1 0.00902-2.19 0.018-3.32 0.0273-1.26 0.0174-1.26 0.0174-2.55 0.0352v-3z" fill="#000002"/>
<path transform="translate(952,755)" d="m0 0h13c-0.33 0.99-0.66 1.98-1 3-0.699-0.0116-1.4-0.0232-2.12-0.0352-0.91-0.00902-1.82-0.018-2.76-0.0273-0.905-0.0116-1.81-0.0232-2.74-0.0352-2.4-0.0648-2.4-0.0648-4.38 1.1v-4z" fill="#000002"/>
<path transform="translate(82,754)" d="m0 0c2.02 0.09 4.05 0.246 6.06 0.438 1.66 0.153 1.66 0.153 3.35 0.309 0.855 0.0838 1.71 0.168 2.59 0.254v3h-12c-0.33-0.99-0.66-1.98-1-3 0.33-0.33 0.66-0.66 1-1z" fill="#000002"/>
<path transform="translate(29,755)" d="m0 0h12c-0.33 0.99-0.66 1.98-1 3-0.94-0.0174-0.94-0.0174-1.9-0.0352-1.23-0.0135-1.23-0.0135-2.48-0.0273-1.22-0.0174-1.22-0.0174-2.46-0.0352-2.21-0.047-2.21-0.047-4.16 1.1v-4z" fill="#000002"/>
<path transform="translate(1537,755)" d="m0 0h12c0.33 1.32 0.66 2.64 1 4l-2-1c-2.59-0.272-5.18-0.446-7.79-0.621-0.731-0.125-1.46-0.25-2.21-0.379-0.33-0.66-0.66-1.32-1-2z" fill="#000002"/>
<path transform="translate(1232,754)" d="m0 0c5.25 1.19 6.63 1.51 10 6-3.3-0.66-6.6-1.32-10-2-0.33-0.99-0.66-1.98-1-3 0.33-0.33 0.66-0.66 1-1z" fill="#000002"/>
<path transform="translate(1006,755)" d="m0 0h11c0.33 1.32 0.66 2.64 1 4-0.66-0.33-1.32-0.66-2-1-1.71-0.07-3.42-0.0844-5.12-0.0625-0.91 0.00902-1.82 0.018-2.76 0.0273-1.05 0.0174-1.05 0.0174-2.12 0.0352v-3z" fill="#000002"/>
<path transform="translate(744,754)" d="m0 0c-0.33 0.99-0.66 1.98-1 3-3.63 0.33-7.26 0.66-11 1 0.33-0.99 0.66-1.98 1-3 7.62-1 7.62-1 11-1z" fill="#000002"/>
<path transform="translate(1286,755)" d="m0 0h11c0.33 0.99 0.66 1.98 1 3h-12v-3z" fill="#000002"/>
<path transform="translate(964,806)" d="m0 0h1v22h-1v-22z" fill="#000102"/>
<path transform="translate(829,785)" d="m0 0h1v19h-1v-19z" fill="#CFF1F6"/>
<path transform="translate(842,815)" d="m0 0h1v12h-1v-12z" fill="#000102"/>
<path transform="translate(271,759)" d="m0 0h1v9h-1v-9z" fill="#CFF1F6"/>
<path transform="translate(807,827)" d="m0 0 2 1c0.625 2.56 0.625 2.56 1 5-0.66-0.33-1.32-0.66-2-1-0.625-2.56-0.625-2.56-1-5z" fill="#000002"/>
<path transform="translate(469,824)" d="m0 0h1v8h-1v-8z" fill="#000102"/>
<path transform="translate(1438,829)" d="m0 0c1.48 0.99 1.48 0.99 3 2v2h-2c-0.33-1.32-0.66-2.64-1-4z" fill="#000002"/>
<path transform="translate(1017,821)" d="m0 0h1v7h-1v-7z" fill="#000102"/>
<path transform="translate(1067,794)" d="m0 0h1v6h-1v-6z" fill="#CFF1F6"/>
<path transform="translate(869,794)" d="m0 0h1v6h-1v-6z" fill="#CFF1F6"/>
<path transform="translate(573,768)" d="m0 0h1v6h-1v-6z" fill="#000102"/>
<path transform="translate(1345,802)" d="m0 0h1v5h-1v-5z" fill="#000102"/>
<path transform="translate(964,773)" d="m0 0h1v5h-1v-5z" fill="#000102"/>
<path transform="translate(272,825)" d="m0 0 1 4z" fill="#CFF1F6"/>
<path transform="translate(1549,808)" d="m0 0 1 4z" fill="#000102"/>
<path transform="translate(40,804)" d="m0 0 1 4z" fill="#000102"/>
<path transform="translate(737,21)" d="m0 0 2 1z" fill="#FAFDFF"/>
</svg>
